<svg width="209" height="55" viewBox="0 0 209 55" fill="none" xmlns="http://www.w3.org/2000/svg">
<g clip-path="url(#clip0_207_5375)">
<path d="M26 1.19996C16.1333 2.26662 9.06667 6.13329 4.13333 13.0666C0.533333 18.2666 0 19.9999 0 27.8666C0 39.5999 4 46.1333 14.1333 51.1999C22.9333 55.5999 29.8667 55.5999 38.9333 51.4666C50.6667 45.9999 56.2667 33.4666 52.6667 20.7999C50.8 13.8666 44 6.79996 38.5333 5.99996C21.7333 3.46662 23.8667 3.06662 52 3.73329C89.8667 4.53329 92.6667 5.46662 92.6667 18.3999C92.6667 22.1333 91.7333 24.3999 89.2 26.7999C86.1333 29.7333 84.4 29.9999 70.9333 30.6666L56 31.3333L55.6 42.2666C55.3333 51.4666 55.6 53.3333 57.3333 53.3333C58.9333 53.3333 59.3333 51.4666 59.3333 43.9999V34.6666H67.2H74.9333L82.8 43.8666C87.0667 49.0666 91.7333 53.1999 93.0667 53.1999C95.0667 53.3333 94.5333 51.9999 90.1333 46.7999C87.2 43.3333 83.8667 39.5999 82.6667 38.6666C79.7333 36.2666 80.1333 34.9333 84.6667 33.9999C86.8 33.5999 90.4 31.0666 92.6667 28.5333C99.8667 20.1333 97.0667 7.06662 86.9333 2.26662C83.0667 0.399953 78.1333 -4.64879e-05 57.7333 0.133287C44.4 0.26662 30 0.799953 26 1.19996ZM38.2667 7.19996C39.4667 7.19996 40.2667 7.46662 39.8667 7.86662C39.6 8.26662 41.2 10.6666 43.6 13.1999L48 17.8666L42.9333 13.5999C35.8667 7.59996 34.2667 8.26662 40.5333 14.5333C53.2 27.1999 46.4 47.3333 28.8 49.0666C20.9333 49.7333 17.2 47.9999 10.8 40.2666C4.66667 32.7999 3.6 27.3333 7.06667 19.5999C11.0667 10.6666 22.1333 4.66662 31.3333 6.26662C33.8667 6.79996 37.0667 7.19996 38.2667 7.19996ZM10.9333 44.3999C14.2667 47.8666 15.0667 49.1999 13.0667 48.1333C8.4 45.7333 3.2 37.9999 2.53333 32.3999L2 27.3333L3.86667 33.1999C4.93333 36.3999 8.13333 41.4666 10.9333 44.3999Z" fill="black"/>
<path d="M114.133 25.6C106.667 39.6 100.667 51.6 100.667 52.2666C100.667 56.4 105.067 49.8666 115.867 29.7333L128.133 6.93334L130.667 11.6C132.667 15.2 132.8 16.6666 131.733 18.5333C128.8 23.2 114 51.6 114 52.4C114 55.4666 117.067 52.2666 120.133 46.2666C122.133 42.5333 123.867 39.8666 124.133 40.6666C124.267 41.3333 124.8 43.7333 125.2 45.7333C125.867 48.4 127.467 50.1333 130.8 51.4666C136.8 54 141.733 51.8666 144.933 45.6L147.067 41.2L150.133 47.2C151.733 50.5333 154 53.3333 154.933 53.3333C156.133 53.3333 153.6 47.3333 147.867 36.2666C142.933 26.9333 138.4 18.6666 137.733 17.7333C136.933 16.8 137.467 14.4 139.067 11.4666L141.733 6.66667L154.133 30C160.933 42.8 167.467 53.3333 168.4 53.3333C169.6 53.3333 165.867 45.0666 158.533 30.9333C152.133 18.6666 145.867 6.66667 144.8 4.26667C143.733 2 142.4 0 142 0C141.467 0 139.733 2.8 138 6.26667L134.933 12.4L131.733 6.26667C130 2.8 128.4 0 128.133 0C127.867 0 121.467 11.4666 114.133 25.6ZM135.467 30.6666C136.133 30.6666 136.667 28.6666 136.667 26.2666L136.8 22L139.6 27.3333C143.6 34.6666 144 43.3333 140.667 46.6666C137.467 49.8666 133.067 50.1333 129.733 47.0666C125.333 43.0666 127.6 38.6666 132.667 41.3333C134.667 42.4 136 42.4 137.2 41.4666C138.133 40.6666 139.333 40.4 139.733 40.8C140.267 41.3333 140.4 39.7333 140.267 37.4666C140.133 34.4 139.2 33.0666 137.067 32.5333C132.667 31.3333 129.333 32.5333 129.733 34.9333C129.867 36.1333 129.333 37.6 128.533 38.1333C127.333 38.8 127.2 38.4 127.733 36.9333C128.133 35.7333 128 34.6666 127.333 34.4C126.667 34.1333 127.867 31.3333 129.733 28L133.333 22L133.733 26.2666C134 28.6666 134.667 30.6666 135.467 30.6666Z" fill="black"/>
<path d="M172.533 0.533333C172.267 0.8 172.133 12.9333 172.4 27.3333C172.667 46.1333 173.2 53.3333 174.267 53.0667C175.2 52.6667 175.733 49.3333 175.467 43.8667C175.2 36 175.467 35.0667 179.067 31.6L182.8 28L194 40.6667C203.733 51.6 208.667 55.6 208.667 52.5333C208.667 51.8667 193.6 34.2667 190 30.6667C185.067 25.7333 185.067 25.7333 198.133 12.5333C207.2 3.46667 209.867 0 208 0C206.4 0 199.333 6.13333 190.4 14.9333L175.333 29.8667L176.267 14.9333C176.933 2.26667 176.8 0 175.067 0C174 0 172.8 0.266666 172.533 0.533333Z" fill="black"/>
</g>
<defs>
<clipPath id="clip0_207_5375">
<rect width="209" height="55" fill="white"/>
</clipPath>
</defs>
</svg>
