<svg width="217" height="63" viewBox="0 0 217 63" fill="none" xmlns="http://www.w3.org/2000/svg">
<g clip-path="url(#clip0_207_5371)" filter="url(#filter0_d_207_5371)">
<path d="M30 1.19996C20.1333 2.26662 13.0667 6.13329 8.13333 13.0666C4.53333 18.2666 4 19.9999 4 27.8666C4 39.5999 8 46.1333 18.1333 51.1999C26.9333 55.5999 33.8667 55.5999 42.9333 51.4666C54.6667 45.9999 60.2667 33.4666 56.6667 20.7999C54.8 13.8666 48 6.79996 42.5333 5.99996C25.7333 3.46662 27.8667 3.06662 56 3.73329C93.8667 4.53329 96.6667 5.46662 96.6667 18.3999C96.6667 22.1333 95.7333 24.3999 93.2 26.7999C90.1333 29.7333 88.4 29.9999 74.9333 30.6666L60 31.3333L59.6 42.2666C59.3333 51.4666 59.6 53.3333 61.3333 53.3333C62.9333 53.3333 63.3333 51.4666 63.3333 43.9999V34.6666H71.2H78.9333L86.8 43.8666C91.0667 49.0666 95.7333 53.1999 97.0667 53.1999C99.0667 53.3333 98.5333 51.9999 94.1333 46.7999C91.2 43.3333 87.8667 39.5999 86.6667 38.6666C83.7333 36.2666 84.1333 34.9333 88.6667 33.9999C90.8 33.5999 94.4 31.0666 96.6667 28.5333C103.867 20.1333 101.067 7.06662 90.9333 2.26662C87.0667 0.399953 82.1333 -4.64879e-05 61.7333 0.133287C48.4 0.26662 34 0.799953 30 1.19996ZM42.2667 7.19996C43.4667 7.19996 44.2667 7.46662 43.8667 7.86662C43.6 8.26662 45.2 10.6666 47.6 13.1999L52 17.8666L46.9333 13.5999C39.8667 7.59996 38.2667 8.26662 44.5333 14.5333C57.2 27.1999 50.4 47.3333 32.8 49.0666C24.9333 49.7333 21.2 47.9999 14.8 40.2666C8.66667 32.7999 7.6 27.3333 11.0667 19.5999C15.0667 10.6666 26.1333 4.66662 35.3333 6.26662C37.8667 6.79996 41.0667 7.19996 42.2667 7.19996ZM14.9333 44.3999C18.2667 47.8666 19.0667 49.1999 17.0667 48.1333C12.4 45.7333 7.2 37.9999 6.53333 32.3999L6 27.3333L7.86667 33.1999C8.93333 36.3999 12.1333 41.4666 14.9333 44.3999Z" fill="white"/>
<path d="M118.133 25.6C110.667 39.6 104.667 51.6 104.667 52.2666C104.667 56.4 109.067 49.8666 119.867 29.7333L132.133 6.93334L134.667 11.6C136.667 15.2 136.8 16.6666 135.733 18.5333C132.8 23.2 118 51.6 118 52.4C118 55.4666 121.067 52.2666 124.133 46.2666C126.133 42.5333 127.867 39.8666 128.133 40.6666C128.267 41.3333 128.8 43.7333 129.2 45.7333C129.867 48.4 131.467 50.1333 134.8 51.4666C140.8 54 145.733 51.8666 148.933 45.6L151.067 41.2L154.133 47.2C155.733 50.5333 158 53.3333 158.933 53.3333C160.133 53.3333 157.6 47.3333 151.867 36.2666C146.933 26.9333 142.4 18.6666 141.733 17.7333C140.933 16.8 141.467 14.4 143.067 11.4666L145.733 6.66667L158.133 30C164.933 42.8 171.467 53.3333 172.4 53.3333C173.6 53.3333 169.867 45.0666 162.533 30.9333C156.133 18.6666 149.867 6.66667 148.8 4.26667C147.733 2 146.4 0 146 0C145.467 0 143.733 2.8 142 6.26667L138.933 12.4L135.733 6.26667C134 2.8 132.4 0 132.133 0C131.867 0 125.467 11.4666 118.133 25.6ZM139.467 30.6666C140.133 30.6666 140.667 28.6666 140.667 26.2666L140.8 22L143.6 27.3333C147.6 34.6666 148 43.3333 144.667 46.6666C141.467 49.8666 137.067 50.1333 133.733 47.0666C129.333 43.0666 131.6 38.6666 136.667 41.3333C138.667 42.4 140 42.4 141.2 41.4666C142.133 40.6666 143.333 40.4 143.733 40.8C144.267 41.3333 144.4 39.7333 144.267 37.4666C144.133 34.4 143.2 33.0666 141.067 32.5333C136.667 31.3333 133.333 32.5333 133.733 34.9333C133.867 36.1333 133.333 37.6 132.533 38.1333C131.333 38.8 131.2 38.4 131.733 36.9333C132.133 35.7333 132 34.6666 131.333 34.4C130.667 34.1333 131.867 31.3333 133.733 28L137.333 22L137.733 26.2666C138 28.6666 138.667 30.6666 139.467 30.6666Z" fill="white"/>
<path d="M176.533 0.533333C176.267 0.8 176.133 12.9333 176.4 27.3333C176.667 46.1333 177.2 53.3333 178.267 53.0667C179.2 52.6667 179.733 49.3333 179.467 43.8667C179.2 36 179.467 35.0667 183.067 31.6L186.8 28L198 40.6667C207.733 51.6 212.667 55.6 212.667 52.5333C212.667 51.8667 197.6 34.2667 194 30.6667C189.067 25.7333 189.067 25.7333 202.133 12.5333C211.2 3.46667 213.867 0 212 0C210.4 0 203.333 6.13333 194.4 14.9333L179.333 29.8667L180.267 14.9333C180.933 2.26667 180.8 0 179.067 0C178 0 176.8 0.266666 176.533 0.533333Z" fill="white"/>
</g>
<defs>
<filter id="filter0_d_207_5371" x="0" y="0" width="217" height="63" filterUnits="userSpaceOnUse" color-interpolation-filters="sRGB">
<feFlood flood-opacity="0" result="BackgroundImageFix"/>
<feColorMatrix in="SourceAlpha" type="matrix" values="0 0 0 0 0 0 0 0 0 0 0 0 0 0 0 0 0 0 127 0" result="hardAlpha"/>
<feOffset dy="4"/>
<feGaussianBlur stdDeviation="2"/>
<feComposite in2="hardAlpha" operator="out"/>
<feColorMatrix type="matrix" values="0 0 0 0 0 0 0 0 0 0 0 0 0 0 0 0 0 0 0.25 0"/>
<feBlend mode="normal" in2="BackgroundImageFix" result="effect1_dropShadow_207_5371"/>
<feBlend mode="normal" in="SourceGraphic" in2="effect1_dropShadow_207_5371" result="shape"/>
</filter>
<clipPath id="clip0_207_5371">
<rect width="209" height="55" fill="white" transform="translate(4)"/>
</clipPath>
</defs>
</svg>
